<svg xmlns="http://www.w3.org/2000/svg" viewBox="0 0 535.32 120.33"><defs><style>.cls-1{fill:#ed1a3b;}.cls-2{fill:#f79f1f;}.cls-3{fill:#ffc312;}</style></defs><title>desktop</title><g id="Layer_2" data-name="Layer 2"><g id="Layer_1-2" data-name="Layer 1"><path class="cls-1" d="M43.78.14,7.55.2A7.55,7.55,0,0,0,.44,10.27L20,44a11.37,11.37,0,0,0,8.87,4.26l16.52,0a7.71,7.71,0,0,1,6.7,11.55L43.82,74.08a11.3,11.3,0,0,0-.71,9.81l19.6,33.82A7.55,7.55,0,0,0,75,116.55L93,85.14Z"/><polygon class="cls-2" points="117.56 42.52 92.95 0.06 43.78 0.14 93.04 85.14 117.56 42.52"/><path class="cls-3" d="M128.94,0,93,.06l24.61,42.46,17.94-31.2A7.56,7.56,0,0,0,128.94,0Z"/><path class="cls-1" d="M227.78,17.8a3.57,3.57,0,0,1-.43,1.61L191.59,91.58a2.37,2.37,0,0,1-2.15,1.72c-.79,0-1.5-.57-2.15-1.72L151.75,19.41a3.57,3.57,0,0,1-.43-1.61c0-1.43.93-2.15,2.79-2.15h11.7A3.89,3.89,0,0,1,169.68,18l19.76,41,19.87-41a3.88,3.88,0,0,1,3.87-2.37H225C226.85,15.65,227.78,16.37,227.78,17.8Z"/><path class="cls-1" d="M253.67,116.18h-11c-1.86,0-2.79-.76-2.79-2.26a4.45,4.45,0,0,1,.32-1.5l8.6-20.52L225.21,39a4.47,4.47,0,0,1-.32-1.61,1.92,1.92,0,0,1,.7-1.56,3,3,0,0,1,2-.59h11.82A3.61,3.61,0,0,1,243,37.67l14,35.12,12.78-35a3.57,3.57,0,0,1,3.76-2.58h11.7a3.21,3.21,0,0,1,2.15.64,2.16,2.16,0,0,1,.75,1.72,4.06,4.06,0,0,1-.32,1.4l-30.5,74.75A3.61,3.61,0,0,1,253.67,116.18Z"/><path class="cls-1" d="M336.58,93.19a3.16,3.16,0,0,1-.86-2.36V88.15q-2.14,2.89-7.2,5a27.14,27.14,0,0,1-10.74,2.15,30.22,30.22,0,0,1-15.78-4,26.21,26.21,0,0,1-10.31-11.22,33.79,33.79,0,0,1-3.55-15.57,33.69,33.69,0,0,1,3.6-15.68A27.54,27.54,0,0,1,302,37.78a29.61,29.61,0,0,1,15.78-4.08,26.6,26.6,0,0,1,10.64,2,18,18,0,0,1,7.3,5.37v-2.9A3,3,0,0,1,338.94,35h9.45a3,3,0,0,1,3.22,3.22V90.83a3,3,0,0,1-3.22,3.22h-9.45A3.16,3.16,0,0,1,336.58,93.19Zm-4.67-40.81a15.66,15.66,0,0,0-11.76-4.62c-4.94,0-8.88,1.55-11.82,4.62s-4.4,7.13-4.4,12.14a16.49,16.49,0,0,0,4.51,12,15.54,15.54,0,0,0,11.71,4.68q7.52,0,11.86-4.46t4.35-12.19Q336.36,57,331.91,52.38Z"/><path class="cls-1" d="M373.81,35.84a3.24,3.24,0,0,1,.86,2.37v2.68q2.15-2.89,7.2-5A27.12,27.12,0,0,1,392.6,33.7a30.09,30.09,0,0,1,15.68,4A27.06,27.06,0,0,1,418.7,48.84a34.61,34.61,0,0,1,3.55,15.68A34.16,34.16,0,0,1,418.7,80.2a27.12,27.12,0,0,1-10.2,11.06,30.54,30.54,0,0,1-15.9,4.08,26.59,26.59,0,0,1-10.63-2,18,18,0,0,1-7.3-5.37v21.91a3,3,0,0,1-3.22,3.22H362a3,3,0,0,1-3.23-3.22V38.21A3,3,0,0,1,362,35h9.45A3.19,3.19,0,0,1,373.81,35.84Zm4.67,40.81q4.45,4.62,11.76,4.62t11.82-4.62q4.4-4.61,4.4-12.13a16.53,16.53,0,0,0-4.51-12,15.57,15.57,0,0,0-11.71-4.67q-7.51,0-11.87,4.46T374,64.52Q374,72,378.48,76.65Z"/><path class="cls-1" d="M476.93,93.19a3.16,3.16,0,0,1-.86-2.36V88.15q-2.15,2.89-7.2,5a27.14,27.14,0,0,1-10.74,2.15,30.22,30.22,0,0,1-15.78-4A26.21,26.21,0,0,1,432,80.09a33.79,33.79,0,0,1-3.55-15.57,33.69,33.69,0,0,1,3.6-15.68,27.54,27.54,0,0,1,10.26-11.06,29.59,29.59,0,0,1,15.78-4.08,26.64,26.64,0,0,1,10.64,2,18,18,0,0,1,7.3,5.37v-2.9A3,3,0,0,1,479.29,35h9.45A3,3,0,0,1,492,38.21V90.83a3,3,0,0,1-3.22,3.22h-9.45A3.16,3.16,0,0,1,476.93,93.19Zm-4.67-40.81a15.66,15.66,0,0,0-11.76-4.62c-4.94,0-8.88,1.55-11.82,4.62s-4.4,7.13-4.4,12.14a16.49,16.49,0,0,0,4.51,12,15.54,15.54,0,0,0,11.71,4.68q7.51,0,11.86-4.46t4.35-12.19Q476.71,57,472.26,52.38Z"/><path class="cls-1" d="M534.46,34.77a3.36,3.36,0,0,1,.86,2.47v9.13c0,1.93-1.08,3-3.23,3.22a20.8,20.8,0,0,0-6.87,1.67A18,18,0,0,0,519,55.71Q515.12,59.9,515.13,68V90.83a3,3,0,0,1-3.23,3.22h-9.55a3,3,0,0,1-3.23-3.22V38.21A3,3,0,0,1,502.35,35h9.55a3,3,0,0,1,3.23,3.22v4.62a20.56,20.56,0,0,1,7.62-6.23A27.1,27.1,0,0,1,532.09,34,2.91,2.91,0,0,1,534.46,34.77Z"/></g></g></svg>